<?xml version="1.0" encoding="UTF-8" standalone="no"?>
<!-- Created with Inkscape (http://www.inkscape.org/) -->

<svg
   xmlns:dc="http://purl.org/dc/elements/1.1/"
   xmlns:cc="http://creativecommons.org/ns#"
   xmlns:rdf="http://www.w3.org/1999/02/22-rdf-syntax-ns#"
   xmlns:svg="http://www.w3.org/2000/svg"
   xmlns="http://www.w3.org/2000/svg"
   xmlns:sodipodi="http://sodipodi.sourceforge.net/DTD/sodipodi-0.dtd"
   xmlns:inkscape="http://www.inkscape.org/namespaces/inkscape"
   width="174.84772mm"
   height="33.6423mm"
   viewBox="0 0 174.84772 33.6423"
   version="1.1"
   id="svg3765"
   inkscape:version="0.92.3 (2405546, 2018-03-11)"
   sodipodi:docname="logo-white.svg">
  <defs
     id="defs3759" />
  <sodipodi:namedview
     id="base"
     pagecolor="#ffffff"
     bordercolor="#666666"
     borderopacity="1.0"
     inkscape:pageopacity="0.0"
     inkscape:pageshadow="2"
     inkscape:zoom="0.35"
     inkscape:cx="333.278"
     inkscape:cy="-387.85256"
     inkscape:document-units="mm"
     inkscape:current-layer="layer1"
     showgrid="false"
     inkscape:window-width="1920"
     inkscape:window-height="1001"
     inkscape:window-x="-9"
     inkscape:window-y="-9"
     inkscape:window-maximized="1" />
  <metadata
     id="metadata3762">
    <rdf:RDF>
      <cc:Work
         rdf:about="">
        <dc:format>image/svg+xml</dc:format>
        <dc:type
           rdf:resource="http://purl.org/dc/dcmitype/StillImage" />
        <dc:title></dc:title>
      </cc:Work>
    </rdf:RDF>
  </metadata>
  <g
     inkscape:label="Layer 1"
     inkscape:groupmode="layer"
     id="layer1"
     transform="translate(-17.653528,-12.57171)">
    <g
       transform="matrix(0.26458333,0,0,0.26458333,-30.38928,-72.207139)"
       id="logo-group"
       style="fill:#ffffff">
      <g
         id="title"
         style="font-style:normal;font-weight:800;font-size:72px;line-height:1;font-family:'Montserrat ExtraBold Alt1';font-variant-ligatures:none;text-align:center;text-anchor:middle;fill:#ffffff"
         aria-label="MUQUIZ">
        <path
           inkscape:connector-curvature="0"
           id="path444465"
           style="font-style:normal;font-weight:800;font-size:72px;line-height:1;font-family:'Montserrat ExtraBold Alt1';font-variant-ligatures:none;text-align:center;text-anchor:middle;fill:#ffffff"
           d="m 417.51181,88.824 -13.032,23.328 0.072,7.848 h 13.104 z M 359.04781,120 h 13.176 v -6.984 l -13.176,-23.544 z m 46.728,-50.4 -17.28,29.088 -17.712,-29.088 h -11.736 l 13.176,24.408 12.888,21.024 h 6.336 l 12.96,-21.744 12.744,-23.688 z"
           transform="matrix(2,0,0,2,-536.5165,183.24)" />
        <path
           inkscape:connector-curvature="0"
           id="path444467"
           style="font-style:normal;font-weight:800;font-size:72px;line-height:1;font-family:'Montserrat ExtraBold Alt1';font-variant-ligatures:none;text-align:center;text-anchor:middle;fill:#ffffff"
           d="m 433.43281,114.888 c 4.176,4.104 10.008,6.12 17.496,6.12 7.488,0 13.248,-2.016 17.424,-6.12 4.176,-4.032 6.264,-9.864 6.264,-17.352 V 69.6 h -14.04 v 27.504 c 0,8.064 -3.168,12.096 -9.504,12.096 -6.408,0 -9.576,-4.032 -9.576,-12.096 V 69.6 h -14.256 v 27.936 c 0,7.488 2.016,13.32 6.192,17.352 z"
           transform="matrix(2,0,0,2,-528.2165,183.24)" />
        <path
           inkscape:connector-curvature="0"
           id="path444469"
           style="font-style:normal;font-weight:800;font-size:72px;line-height:1;font-family:'Montserrat ExtraBold Alt1';font-variant-ligatures:none;text-align:center;text-anchor:middle;fill:#ffffff"
           d="m 540.22006,125.832 -6.192,-7.344 c -2.304,2.376 -4.824,3.528 -7.632,3.528 -1.152,0 -2.16,-0.216 -3.096,-0.648 -0.936,-0.432 -1.872,-1.152 -2.808,-2.232 5.184,-1.872 9.36,-4.968 12.456,-9.288 3.096,-4.32 4.68,-9.36 4.68,-15.048 0,-4.968 -1.224,-9.432 -3.672,-13.464 -2.448,-3.96 -5.76,-7.056 -10.008,-9.36 -4.248,-2.232 -9,-3.384 -14.328,-3.384 -5.328,0 -10.152,1.152 -14.4,3.384 -4.248,2.304 -7.56,5.4 -10.008,9.36 -2.448,4.032 -3.6,8.496 -3.6,13.464 0,4.392 0.936,8.424 2.808,12.024 1.872,3.672 4.536,6.696 7.992,9.072 3.384,2.448 7.272,3.96 11.664,4.68 2.808,3.024 5.328,5.328 7.632,6.984 2.304,1.656 4.536,2.808 6.84,3.528 2.232,0.72 4.752,1.08 7.56,1.08 2.88,0 5.472,-0.504 7.92,-1.584 2.448,-1.08 4.464,-2.664 6.192,-4.752 z m -42.408,-23.472 c -1.224,-2.16 -1.8,-4.68 -1.8,-7.56 0,-2.808 0.576,-5.328 1.8,-7.488 1.152,-2.16 2.808,-3.888 4.896,-5.112 2.016,-1.152 4.32,-1.8 6.912,-1.8 2.52,0 4.824,0.648 6.912,1.8 2.016,1.224 3.672,2.952 4.896,5.112 1.152,2.16 1.8,4.68 1.8,7.488 0,2.88 -0.648,5.4 -1.8,7.56 -1.224,2.16 -2.88,3.888 -4.896,5.04 -2.088,1.224 -4.392,1.8 -6.912,1.8 -2.592,0 -4.896,-0.576 -6.912,-1.8 -2.088,-1.152 -3.744,-2.88 -4.896,-5.04 z"
           transform="matrix(2,0,0,2,-519.9165,183.24)" />
        <path
           inkscape:connector-curvature="0"
           id="path444471"
           style="font-style:normal;font-weight:800;font-size:72px;line-height:1;font-family:'Montserrat ExtraBold Alt1';font-variant-ligatures:none;text-align:center;text-anchor:middle;fill:#ffffff"
           d="m 550.85469,114.888 c 4.176,4.104 10.008,6.12 17.496,6.12 7.488,0 13.248,-2.016 17.424,-6.12 4.176,-4.032 6.264,-9.864 6.264,-17.352 V 69.6 h -14.04 v 27.504 c 0,8.064 -3.168,12.096 -9.504,12.096 -6.408,0 -9.576,-4.032 -9.576,-12.096 V 69.6 h -14.256 v 27.936 c 0,7.488 2.016,13.32 6.192,17.352 z"
           transform="matrix(2,0,0,2,-511.6165,183.24)" />
        <path
           inkscape:connector-curvature="0"
           id="path444473"
           style="font-style:normal;font-weight:800;font-size:72px;line-height:1;font-family:'Montserrat ExtraBold Alt1';font-variant-ligatures:none;text-align:center;text-anchor:middle;fill:#ffffff"
           d="M 601.62594,69.6 V 120 h 14.256 V 69.6 Z"
           transform="matrix(2,0,0,2,-503.3165,183.24)" />
        <path
           inkscape:connector-curvature="0"
           id="path444475"
           style="font-style:normal;font-weight:800;font-size:72px;line-height:1;font-family:'Montserrat ExtraBold Alt1';font-variant-ligatures:none;text-align:center;text-anchor:middle;fill:#ffffff"
           d="m 667.63869,69.6 h -8.784 l -9.864,11.304 -25.416,30.168 V 120 h 8.424 l 10.224,-11.304 25.416,-30.168 z m -22.68,0 h -20.736 v 11.304 h 10.512 z m 11.16,39.096 -9.936,11.304 h 22.536 v -11.304 z"
           transform="matrix(2,0,0,2,-495.0165,183.24)" />
      </g>
      <g
         id="tagline"
         style="font-style:normal;font-weight:500;font-size:32px;line-height:1;font-family:Montserrat;font-variant-ligatures:none;text-align:center;text-anchor:middle;fill:#ffffff" />
    </g>
  </g>
</svg>
