<?xml version="1.0" standalone="no"?>
<!DOCTYPE svg PUBLIC "-//W3C//DTD SVG 20010904//EN"
 "http://www.w3.org/TR/2001/REC-SVG-20010904/DTD/svg10.dtd">
<svg version="1.0" xmlns="http://www.w3.org/2000/svg"
 width="140.000000pt" height="140.000000pt" viewBox="0 0 140.000000 140.000000"
 preserveAspectRatio="xMidYMid meet">
<metadata>
Created by potrace 1.11, written by Peter Selinger 2001-2013
</metadata>
<g transform="translate(0.000000,140.000000) scale(0.100000,-0.100000)"
fill="#000000" stroke="none">
<path d="M110 1183 c0 -6 147 -282 212 -396 21 -38 38 -71 38 -73 0 -2 19 -34
43 -72 23 -37 47 -77 54 -88 129 -212 171 -274 183 -275 81 -4 105 -3 115 8
10 9 90 141 188 308 7 11 19 31 28 45 44 68 289 532 284 540 -2 4 -52 7 -110
6 l-105 -1 -69 -115 c-37 -63 -114 -193 -171 -288 -56 -95 -106 -170 -110
-165 -5 4 -85 134 -178 288 l-170 280 -116 1 c-64 0 -116 -1 -116 -3z"/>
<path d="M1263 778 c-4 -7 -61 -107 -127 -223 l-118 -210 -2 -78 c-2 -43 1
-80 5 -83 7 -4 173 -7 235 -5 21 1 21 3 20 306 -1 168 -2 305 -3 305 -1 0 -5
-6 -10 -12z"/>
<path d="M105 481 c0 -160 3 -293 7 -296 6 -6 71 -8 211 -6 l47 1 0 69 0 68
-106 189 c-59 104 -115 206 -126 227 -11 20 -23 37 -27 37 -3 0 -6 -130 -6
-289z"/>
</g>
</svg>
